<?xml version="1.0" encoding="UTF-8" standalone="no"?>
<svg height="16px" viewBox="0 0 16 16" width="16px" version="1.1" id="svg163" xmlns="http://www.w3.org/2000/svg" xmlns:svg="http://www.w3.org/2000/svg">
  <defs id="defs167"/>
  <filter id="a" height="1" width="1" x="0" y="0">
    <feColorMatrix in="SourceGraphic" type="matrix" values="0 0 0 0 1 0 0 0 0 1 0 0 0 0 1 0 0 0 1 0" id="feColorMatrix2"/>
  </filter>
  <mask id="b">
    <g filter="url(#a)" id="g7">
      <path d="m 0 0 h 16 v 16 h -16 z" fill-opacity="0.3" id="path5"/>
    </g>
  </mask>
  <clipPath id="c">
    <path d="m 0 0 h 1024 v 800 h -1024 z" id="path10"/>
  </clipPath>
  <mask id="d">
    <g filter="url(#a)" id="g15">
      <path d="m 0 0 h 16 v 16 h -16 z" fill-opacity="0.05" id="path13"/>
    </g>
  </mask>
  <clipPath id="e">
    <path d="m 0 0 h 1024 v 800 h -1024 z" id="path18"/>
  </clipPath>
  <mask id="f">
    <g filter="url(#a)" id="g23">
      <path d="m 0 0 h 16 v 16 h -16 z" fill-opacity="0.05" id="path21"/>
    </g>
  </mask>
  <clipPath id="g">
    <path d="m 0 0 h 1024 v 800 h -1024 z" id="path26"/>
  </clipPath>
  <mask id="h">
    <g filter="url(#a)" id="g31">
      <path d="m 0 0 h 16 v 16 h -16 z" fill-opacity="0.05" id="path29"/>
    </g>
  </mask>
  <clipPath id="i">
    <path d="m 0 0 h 1024 v 800 h -1024 z" id="path34"/>
  </clipPath>
  <mask id="j">
    <g filter="url(#a)" id="g39">
      <path d="m 0 0 h 16 v 16 h -16 z" fill-opacity="0.05" id="path37"/>
    </g>
  </mask>
  <clipPath id="k">
    <path d="m 0 0 h 1024 v 800 h -1024 z" id="path42"/>
  </clipPath>
  <mask id="l">
    <g filter="url(#a)" id="g47">
      <path d="m 0 0 h 16 v 16 h -16 z" fill-opacity="0.05" id="path45"/>
    </g>
  </mask>
  <clipPath id="m">
    <path d="m 0 0 h 1024 v 800 h -1024 z" id="path50"/>
  </clipPath>
  <mask id="n">
    <g filter="url(#a)" id="g55">
      <path d="m 0 0 h 16 v 16 h -16 z" fill-opacity="0.05" id="path53"/>
    </g>
  </mask>
  <clipPath id="o">
    <path d="m 0 0 h 1024 v 800 h -1024 z" id="path58"/>
  </clipPath>
  <mask id="p">
    <g filter="url(#a)" id="g63">
      <path d="m 0 0 h 16 v 16 h -16 z" fill-opacity="0.3" id="path61"/>
    </g>
  </mask>
  <clipPath id="q">
    <path d="m 0 0 h 1024 v 800 h -1024 z" id="path66"/>
  </clipPath>
  <mask id="r">
    <g filter="url(#a)" id="g71">
      <path d="m 0 0 h 16 v 16 h -16 z" fill-opacity="0.5" id="path69"/>
    </g>
  </mask>
  <clipPath id="s">
    <path d="m 0 0 h 1024 v 800 h -1024 z" id="path74"/>
  </clipPath>
  <mask id="t">
    <g filter="url(#a)" id="g79">
      <path d="m 0 0 h 16 v 16 h -16 z" fill-opacity="0.4" id="path77"/>
    </g>
  </mask>
  <clipPath id="u">
    <path d="m 0 0 h 1024 v 800 h -1024 z" id="path82"/>
  </clipPath>
  <mask id="v">
    <g filter="url(#a)" id="g87">
      <path d="m 0 0 h 16 v 16 h -16 z" fill-opacity="0.4" id="path85"/>
    </g>
  </mask>
  <clipPath id="w">
    <path d="m 0 0 h 1024 v 800 h -1024 z" id="path90"/>
  </clipPath>
  <mask id="x">
    <g filter="url(#a)" id="g95">
      <path d="m 0 0 h 16 v 16 h -16 z" fill-opacity="0.5" id="path93"/>
    </g>
  </mask>
  <clipPath id="y">
    <path d="m 0 0 h 1024 v 800 h -1024 z" id="path98"/>
  </clipPath>
  <mask id="z">
    <g filter="url(#a)" id="g103">
      <path d="m 0 0 h 16 v 16 h -16 z" fill-opacity="0.5" id="path101"/>
    </g>
  </mask>
  <clipPath id="A">
    <path d="m 0 0 h 1024 v 800 h -1024 z" id="path106"/>
  </clipPath>
  <g clip-path="url(#c)" mask="url(#b)" transform="matrix(1 0 0 1 -700 -420)" id="g113">
    <path d="m 562.460938 212.058594 h 10.449218 c -1.183594 0.492187 -1.296875 2.460937 0 3 h -10.449218 z m 0 0" fill="#2e3436" id="path111"/>
  </g>
  <g clip-path="url(#e)" mask="url(#d)" transform="matrix(1 0 0 1 -700 -420)" id="g117">
    <path d="m 16 632 h 1 v 1 h -1 z m 0 0" fill="#2e3436" fill-rule="evenodd" id="path115"/>
  </g>
  <g clip-path="url(#g)" mask="url(#f)" transform="matrix(1 0 0 1 -700 -420)" id="g121">
    <path d="m 17 631 h 1 v 1 h -1 z m 0 0" fill="#2e3436" fill-rule="evenodd" id="path119"/>
  </g>
  <g clip-path="url(#i)" mask="url(#h)" transform="matrix(1 0 0 1 -700 -420)" id="g125">
    <path d="m 18 634 h 1 v 1 h -1 z m 0 0" fill="#2e3436" fill-rule="evenodd" id="path123"/>
  </g>
  <g clip-path="url(#k)" mask="url(#j)" transform="matrix(1 0 0 1 -700 -420)" id="g129">
    <path d="m 16 634 h 1 v 1 h -1 z m 0 0" fill="#2e3436" fill-rule="evenodd" id="path127"/>
  </g>
  <g clip-path="url(#m)" mask="url(#l)" transform="matrix(1 0 0 1 -700 -420)" id="g133">
    <path d="m 17 635 h 1 v 1 h -1 z m 0 0" fill="#2e3436" fill-rule="evenodd" id="path131"/>
  </g>
  <g clip-path="url(#o)" mask="url(#n)" transform="matrix(1 0 0 1 -700 -420)" id="g137">
    <path d="m 19 635 h 1 v 1 h -1 z m 0 0" fill="#2e3436" fill-rule="evenodd" id="path135"/>
  </g>
  <g clip-path="url(#q)" mask="url(#p)" transform="matrix(1 0 0 1 -700 -420)" id="g141">
    <path d="m 136 660 v 7 h 7 v -7 z m 0 0" fill="#2e3436" id="path139"/>
  </g>
  <g clip-path="url(#s)" mask="url(#r)" transform="matrix(1 0 0 1 -700 -420)" id="g145">
    <path d="m 199 642 h 3 v 12 h -3 z m 0 0" fill="#2e3436" id="path143"/>
  </g>
  <g clip-path="url(#u)" mask="url(#t)" transform="matrix(1 0 0 1 -700 -420)" id="g149">
    <path d="m 209.5 144.160156 c 0.277344 0 0.5 0.222656 0.5 0.5 v 1 c 0 0.277344 -0.222656 0.5 -0.5 0.5 s -0.5 -0.222656 -0.5 -0.5 v -1 c 0 -0.277344 0.222656 -0.5 0.5 -0.5 z m 0 0" fill="#2e3436" id="path147"/>
  </g>
  <g clip-path="url(#w)" mask="url(#v)" transform="matrix(1 0 0 1 -700 -420)" id="g153">
    <path d="m 206.5 144.160156 c 0.277344 0 0.5 0.222656 0.5 0.5 v 1 c 0 0.277344 -0.222656 0.5 -0.5 0.5 s -0.5 -0.222656 -0.5 -0.5 v -1 c 0 -0.277344 0.222656 -0.5 0.5 -0.5 z m 0 0" fill="#2e3436" id="path151"/>
  </g>
  <g clip-path="url(#y)" mask="url(#x)" transform="matrix(1 0 0 1 -700 -420)" id="g157">
    <path d="m 229.5 143.160156 c -0.546875 0 -1 0.457032 -1 1 c 0 0.546875 0.453125 1 1 1 s 1 -0.453125 1 -1 c 0 -0.542968 -0.453125 -1 -1 -1 z m 0 0" fill="#2e3436" id="path155"/>
  </g>
  <g clip-path="url(#A)" mask="url(#z)" transform="matrix(1 0 0 1 -700 -420)" id="g161">
    <path d="m 226.453125 143.160156 c -0.519531 0 -0.953125 0.433594 -0.953125 0.953125 v 0.09375 c 0 0.519531 0.433594 0.953125 0.953125 0.953125 h 0.09375 c 0.519531 0 0.953125 -0.433594 0.953125 -0.953125 v -0.09375 c 0 -0.519531 -0.433594 -0.953125 -0.953125 -0.953125 z m 0 0" fill="#2e3436" id="path159"/>
  </g>
  <filter id="a-3" height="1" width="1" x="0" y="0">
    <feColorMatrix in="SourceGraphic" type="matrix" values="0 0 0 0 1 0 0 0 0 1 0 0 0 0 1 0 0 0 1 0" id="feColorMatrix1120"/>
  </filter>
  <mask id="b-6">
    <g filter="url(#a)" id="g1125" style="filter:url(#a-3)">
      <path d="m 0 0 h 16 v 16 h -16 z" fill-opacity="0.3" id="path1123"/>
    </g>
  </mask>
  <clipPath id="c-7">
    <path d="m 0 0 h 1024 v 800 h -1024 z" id="path1128"/>
  </clipPath>
  <mask id="d-5">
    <g filter="url(#a)" id="g1133" style="filter:url(#a-3)">
      <path d="m 0 0 h 16 v 16 h -16 z" fill-opacity="0.05" id="path1131"/>
    </g>
  </mask>
  <clipPath id="e-3">
    <path d="m 0 0 h 1024 v 800 h -1024 z" id="path1136"/>
  </clipPath>
  <mask id="f-5">
    <g filter="url(#a)" id="g1141" style="filter:url(#a-3)">
      <path d="m 0 0 h 16 v 16 h -16 z" fill-opacity="0.05" id="path1139"/>
    </g>
  </mask>
  <clipPath id="g-6">
    <path d="m 0 0 h 1024 v 800 h -1024 z" id="path1144"/>
  </clipPath>
  <mask id="h-2">
    <g filter="url(#a)" id="g1149" style="filter:url(#a-3)">
      <path d="m 0 0 h 16 v 16 h -16 z" fill-opacity="0.05" id="path1147"/>
    </g>
  </mask>
  <clipPath id="i-9">
    <path d="m 0 0 h 1024 v 800 h -1024 z" id="path1152"/>
  </clipPath>
  <mask id="j-1">
    <g filter="url(#a)" id="g1157" style="filter:url(#a-3)">
      <path d="m 0 0 h 16 v 16 h -16 z" fill-opacity="0.05" id="path1155"/>
    </g>
  </mask>
  <clipPath id="k-2">
    <path d="m 0 0 h 1024 v 800 h -1024 z" id="path1160"/>
  </clipPath>
  <mask id="l-7">
    <g filter="url(#a)" id="g1165" style="filter:url(#a-3)">
      <path d="m 0 0 h 16 v 16 h -16 z" fill-opacity="0.05" id="path1163"/>
    </g>
  </mask>
  <clipPath id="m-0">
    <path d="m 0 0 h 1024 v 800 h -1024 z" id="path1168"/>
  </clipPath>
  <mask id="n-9">
    <g filter="url(#a)" id="g1173" style="filter:url(#a-3)">
      <path d="m 0 0 h 16 v 16 h -16 z" fill-opacity="0.05" id="path1171"/>
    </g>
  </mask>
  <clipPath id="o-3">
    <path d="m 0 0 h 1024 v 800 h -1024 z" id="path1176"/>
  </clipPath>
  <mask id="p-6">
    <g filter="url(#a)" id="g1181" style="filter:url(#a-3)">
      <path d="m 0 0 h 16 v 16 h -16 z" fill-opacity="0.3" id="path1179"/>
    </g>
  </mask>
  <clipPath id="q-0">
    <path d="m 0 0 h 1024 v 800 h -1024 z" id="path1184"/>
  </clipPath>
  <mask id="r-6">
    <g filter="url(#a)" id="g1189" style="filter:url(#a-3)">
      <path d="m 0 0 h 16 v 16 h -16 z" fill-opacity="0.5" id="path1187"/>
    </g>
  </mask>
  <clipPath id="s-2">
    <path d="m 0 0 h 1024 v 800 h -1024 z" id="path1192"/>
  </clipPath>
  <mask id="t-6">
    <g filter="url(#a)" id="g1197" style="filter:url(#a-3)">
      <path d="m 0 0 h 16 v 16 h -16 z" fill-opacity="0.4" id="path1195"/>
    </g>
  </mask>
  <clipPath id="u-1">
    <path d="m 0 0 h 1024 v 800 h -1024 z" id="path1200"/>
  </clipPath>
  <mask id="v-8">
    <g filter="url(#a)" id="g1205" style="filter:url(#a-3)">
      <path d="m 0 0 h 16 v 16 h -16 z" fill-opacity="0.4" id="path1203"/>
    </g>
  </mask>
  <clipPath id="w-7">
    <path d="m 0 0 h 1024 v 800 h -1024 z" id="path1208"/>
  </clipPath>
  <mask id="x-9">
    <g filter="url(#a)" id="g1213" style="filter:url(#a-3)">
      <path d="m 0 0 h 16 v 16 h -16 z" fill-opacity="0.5" id="path1211"/>
    </g>
  </mask>
  <clipPath id="y-2">
    <path d="m 0 0 h 1024 v 800 h -1024 z" id="path1216"/>
  </clipPath>
  <mask id="z-0">
    <g filter="url(#a)" id="g1221" style="filter:url(#a-3)">
      <path d="m 0 0 h 16 v 16 h -16 z" fill-opacity="0.5" id="path1219"/>
    </g>
  </mask>
  <clipPath id="A-2">
    <path d="m 0 0 h 1024 v 800 h -1024 z" id="path1224"/>
  </clipPath>
  <g clip-path="url(#c-7)" mask="url(#b-6)" transform="translate(-668.99126,-664.95306)" id="g1231">
    <path d="m 562.46094,212.05859 h 10.44922 c -1.1836,0.49219 -1.29688,2.46094 0,3 h -10.44922 z m 0,0" fill="#2e3436" id="path1229"/>
  </g>
  <g clip-path="url(#e-3)" mask="url(#d-5)" transform="translate(-668.99126,-664.95306)" id="g1235">
    <path d="m 16,632 h 1 v 1 h -1 z m 0,0" fill="#2e3436" fill-rule="evenodd" id="path1233"/>
  </g>
  <g clip-path="url(#g-6)" mask="url(#f-5)" transform="translate(-668.99126,-664.95306)" id="g1239">
    <path d="m 17,631 h 1 v 1 h -1 z m 0,0" fill="#2e3436" fill-rule="evenodd" id="path1237"/>
  </g>
  <g clip-path="url(#i-9)" mask="url(#h-2)" transform="translate(-668.99126,-664.95306)" id="g1243">
    <path d="m 18,634 h 1 v 1 h -1 z m 0,0" fill="#2e3436" fill-rule="evenodd" id="path1241"/>
  </g>
  <g clip-path="url(#k-2)" mask="url(#j-1)" transform="translate(-668.99126,-664.95306)" id="g1247">
    <path d="m 16,634 h 1 v 1 h -1 z m 0,0" fill="#2e3436" fill-rule="evenodd" id="path1245"/>
  </g>
  <g clip-path="url(#m-0)" mask="url(#l-7)" transform="translate(-668.99126,-664.95306)" id="g1251">
    <path d="m 17,635 h 1 v 1 h -1 z m 0,0" fill="#2e3436" fill-rule="evenodd" id="path1249"/>
  </g>
  <g clip-path="url(#o-3)" mask="url(#n-9)" transform="translate(-668.99126,-664.95306)" id="g1255">
    <path d="m 19,635 h 1 v 1 h -1 z m 0,0" fill="#2e3436" fill-rule="evenodd" id="path1253"/>
  </g>
  <g clip-path="url(#q-0)" mask="url(#p-6)" transform="translate(-668.99126,-664.95306)" id="g1259">
    <path d="m 136,660 v 7 h 7 v -7 z m 0,0" fill="#2e3436" id="path1257"/>
  </g>
  <g clip-path="url(#s-2)" mask="url(#r-6)" transform="translate(-668.99126,-664.95306)" id="g1263">
    <path d="m 199,642 h 3 v 12 h -3 z m 0,0" fill="#2e3436" id="path1261"/>
  </g>
  <g clip-path="url(#u-1)" mask="url(#t-6)" transform="translate(-668.99126,-664.95306)" id="g1267">
    <path d="m 209.5,144.16016 c 0.27734,0 0.5,0.22265 0.5,0.5 v 1 c 0,0.27734 -0.22266,0.5 -0.5,0.5 -0.27734,0 -0.5,-0.22266 -0.5,-0.5 v -1 c 0,-0.27735 0.22266,-0.5 0.5,-0.5 z m 0,0" fill="#2e3436" id="path1265"/>
  </g>
  <g clip-path="url(#w-7)" mask="url(#v-8)" transform="translate(-668.99126,-664.95306)" id="g1271">
    <path d="m 206.5,144.16016 c 0.27734,0 0.5,0.22265 0.5,0.5 v 1 c 0,0.27734 -0.22266,0.5 -0.5,0.5 -0.27734,0 -0.5,-0.22266 -0.5,-0.5 v -1 c 0,-0.27735 0.22266,-0.5 0.5,-0.5 z m 0,0" fill="#2e3436" id="path1269"/>
  </g>
  <g clip-path="url(#y-2)" mask="url(#x-9)" transform="translate(-668.99126,-664.95306)" id="g1275">
    <path d="m 229.5,143.16016 c -0.54688,0 -1,0.45703 -1,1 0,0.54687 0.45312,1 1,1 0.54687,0 1,-0.45313 1,-1 0,-0.54297 -0.45313,-1 -1,-1 z m 0,0" fill="#2e3436" id="path1273"/>
  </g>
  <g clip-path="url(#A-2)" mask="url(#z-0)" transform="translate(-668.99126,-664.95306)" id="g1279">
    <path d="m 226.45312,143.16016 c -0.51953,0 -0.95312,0.43359 -0.95312,0.95312 v 0.0937 c 0,0.51953 0.43359,0.95313 0.95312,0.95313 h 0.0937 c 0.51954,0 0.95313,-0.4336 0.95313,-0.95313 v -0.0937 c 0,-0.51953 -0.43359,-0.95312 -0.95313,-0.95312 z m 0,0" fill="#2e3436" id="path1277"/>
  </g>
  <path id="path1775" d="M 4,6 H 5 C 5.257813,6 5.527344,6.128906 5.71875,6.3125 L 6,6.59375 l 1,1 1,1 1,-1 1,-1 0.28125,-0.28125 C 10.472657,6.128906 10.691407,6 11,6 h 1 v 1 c 0,0.308594 -0.08984,0.550781 -0.28125,0.75 L 8,11.40625 4.28125,7.75 C 4.089844,7.550781 4,7.308594 4,7 Z"/>
</svg>